# xmcd
#
# Track frame offsets: 
#        150
#        16200
#        20882
#        31418
#        42115
#        51922
#        73634
#        82577
#        99207
#        105832
#        121179
#
# Disc length: 1757 seconds
#
# Revision: 0
# Processed by: cddbd v1.5.2PL0 Copyright (c) Steve Scherf et al.
# Submitted via: ExactAudioCopy v0.95a5
#
DISCID=7706db0b
DTITLE=Dan Klau - The Billable Hour Blues
DYEAR=2004
DGENRE=Blues
TTITLE0=The Billable Hour Blues
TTITLE1=That's Litigation
TTITLE2=Bush v. Gore
TTITLE3=Light of Day
TTITLE4=Easy To Sue
TTITLE5=It Depends
TTITLE6=Have a Subpoena, Lena
TTITLE7=The Blues, the Whole Blues, and Nothing But the Blues
TTITLE8=The Associate Song
TTITLE9=State v. Courchesne
TTITLE10=Norm Pattis
EXTD=
EXTT0=
EXTT1=
EXTT2=
EXTT3=
EXTT4=
EXTT5=
EXTT6=
EXTT7=
EXTT8=
EXTT9=
EXTT10=
PLAYORDER=
